<?xml version="1.0" standalone="no"?>
<!DOCTYPE svg PUBLIC "-//W3C//DTD SVG 20010904//EN"
 "http://www.w3.org/TR/2001/REC-SVG-20010904/DTD/svg10.dtd">
<svg version="1.0" xmlns="http://www.w3.org/2000/svg"
 width="275.000000pt" height="275.000000pt" viewBox="0 0 275.000000 275.000000"
 preserveAspectRatio="xMidYMid meet">
<metadata>
Created by potrace 1.14, written by Peter Selinger 2001-2017
</metadata>
<g transform="translate(0.000000,275.000000) scale(0.100000,-0.100000)"
fill="#000000" stroke="none">
<path d="M1287 2419 c-212 -108 -415 -174 -675 -219 -95 -16 -177 -32 -183
-36 -11 -6 -11 -22 12 -424 25 -433 135 -751 369 -1065 130 -173 356 -372 519
-455 48 -24 62 -20 176 50 186 113 404 338 537 553 132 211 231 507 257 762
12 118 35 575 29 581 -2 2 -83 17 -179 34 -271 46 -415 92 -665 210 -59 27
-110 50 -113 50 -3 -1 -41 -19 -84 -41z m191 -83 c199 -99 363 -152 608 -195
l159 -28 -3 -144 c-4 -244 -21 -447 -48 -567 -86 -401 -267 -707 -568 -961
-95 -80 -201 -149 -242 -156 -41 -8 -152 60 -290 178 -130 111 -202 193 -296
337 -125 190 -203 386 -252 630 -25 128 -52 496 -44 624 l3 60 156 27 c237 40
431 103 626 203 37 19 76 35 86 36 9 0 57 -20 105 -44z"/>
<path d="M1265 2298 c2 -7 -10 -22 -28 -33 -17 -11 -36 -29 -42 -40 -5 -12
-25 -44 -42 -71 -32 -50 -43 -81 -23 -69 6 3 7 -1 4 -9 -3 -9 -12 -16 -18 -16
-10 0 -10 -19 0 -92 7 -51 13 -100 14 -107 0 -12 3 -12 12 -3 9 9 9 22 0 57
-15 57 -16 97 -2 75 5 -8 10 -26 11 -40 l1 -25 7 25 c5 17 9 21 15 12 4 -6 12
-12 18 -12 7 0 5 7 -4 18 -15 17 -35 62 -22 49 4 -4 16 5 26 20 22 34 23 44 3
37 -8 -4 -12 -11 -8 -17 4 -6 1 -7 -7 -2 -9 6 -12 4 -8 -7 4 -8 0 -15 -8 -15
-11 0 -10 5 2 27 17 28 60 83 50 63 -4 -6 -2 -14 2 -17 10 -6 55 70 58 99 3
29 -31 30 -52 2 -17 -24 -16 -17 5 25 16 31 45 44 119 53 28 4 52 11 52 15 0
7 -55 5 -102 -5 -10 -2 -18 1 -18 6 0 5 -4 9 -10 9 -5 0 -7 -6 -5 -12z m-86
-149 c-8 -16 -8 -23 1 -29 8 -5 8 -9 -3 -13 -8 -3 -18 -3 -21 0 -6 6 21 63 30
63 2 0 0 -10 -7 -21z"/>
<path d="M1550 2155 c0 -3 11 -10 25 -15 14 -5 25 -17 25 -27 0 -13 2 -15 9
-5 6 10 15 4 35 -22 15 -20 26 -36 24 -37 -31 -8 -39 -6 -34 7 3 9 1 12 -4 9
-6 -3 -10 2 -11 12 0 16 -1 16 -9 -2 l-9 -20 -1 20 c-1 11 -9 -2 -19 -30 -18
-49 -21 -90 -8 -90 4 0 14 -10 23 -23 14 -21 14 -25 0 -47 -9 -13 -16 -30 -16
-37 1 -7 6 -3 14 10 l12 23 10 -21 c8 -19 13 -15 47 44 38 67 44 81 28 72 -12
-8 -23 23 -14 37 4 7 -2 5 -12 -3 -17 -14 -18 -14 -6 8 15 28 25 23 41 -20 17
-47 26 -70 38 -98 10 -25 11 -24 11 8 1 51 -19 122 -35 122 -8 0 -14 6 -14 13
0 14 -59 73 -100 101 -24 16 -50 21 -50 11z m90 -126 c0 8 3 12 6 8 3 -3 1
-14 -5 -24 -8 -14 -10 -14 -11 -3 0 12 -2 12 -9 2 -7 -11 -9 -10 -14 3 -4 10
-3 14 4 9 8 -4 9 1 5 17 -7 24 -7 24 8 -1 9 -14 15 -19 16 -11z m-47 -43 c-3
-15 -2 -17 5 -8 7 11 10 11 15 -3 4 -9 3 -13 -3 -10 -12 8 -13 -5 -1 -24 7
-11 10 -9 16 8 3 11 4 25 1 29 -3 5 1 9 8 9 8 0 12 -8 9 -21 -4 -19 -3 -19 10
3 12 20 15 21 21 6 3 -10 -5 -37 -21 -66 -21 -39 -29 -47 -35 -34 -5 8 -6 19
-3 25 7 11 -24 62 -34 56 -3 -2 -7 7 -7 20 -1 13 2 24 7 24 4 0 6 8 3 18 -5
13 -4 14 4 3 5 -7 7 -23 5 -35z"/>
<path d="M1656 1954 c-3 -8 -10 -12 -16 -9 -6 4 -7 -1 -3 -11 3 -10 2 -15 -3
-12 -5 4 -10 -6 -11 -20 -1 -24 1 -23 23 13 23 38 29 55 20 55 -2 0 -7 -7 -10
-16z"/>
<path d="M1370 2047 c-72 -24 -105 -68 -62 -81 9 -3 18 -16 18 -29 3 -42 34
-96 52 -91 10 2 1 -3 -18 -12 -27 -12 -31 -18 -19 -24 16 -9 94 12 83 22 -3 4
4 9 15 13 12 3 22 12 23 18 2 22 5 32 13 50 4 9 4 33 1 53 -5 23 -3 41 6 51
10 13 9 18 -7 29 -22 17 -57 17 -105 1z m40 -11 c0 -2 -13 -9 -30 -15 -16 -5
-30 -6 -30 -1 0 5 8 11 18 13 24 7 42 8 42 3z m-60 -50 c0 -3 -4 -8 -10 -11
-5 -3 -10 -1 -10 4 0 6 5 11 10 11 6 0 10 -2 10 -4z m105 -5 c7 -12 -14 -25
-40 -26 -11 0 -21 -8 -23 -18 -3 -16 -1 -17 16 -8 27 14 32 14 32 -2 0 -20
-35 -57 -54 -57 -24 0 -20 47 7 87 21 32 50 43 62 24z m-108 -53 c-3 -8 -6 -5
-6 6 -1 11 2 17 5 13 3 -3 4 -12 1 -19z m121 4 c6 -18 -15 -14 -22 4 -4 10 -1
14 6 12 6 -2 14 -10 16 -16z"/>
<path d="M1671 1887 c-18 -34 -25 -53 -16 -42 21 25 58 96 53 101 -2 2 -19
-25 -37 -59z"/>
<path d="M968 1773 c-56 -141 -101 -280 -95 -296 2 -7 12 16 22 51 11 37 21
58 25 51 5 -7 11 1 15 22 4 19 16 50 27 69 11 22 16 26 12 12 -5 -19 -2 -23
12 -20 9 1 19 9 22 17 3 9 0 11 -8 6 -9 -5 -11 -4 -6 3 4 6 9 42 11 80 2 37 7
80 10 95 14 53 -1 25 -47 -90z m-19 -102 c-6 -18 -13 -30 -15 -28 -2 2 1 18 7
36 6 18 13 30 15 28 2 -2 -1 -18 -7 -36z m-22 -63 c-3 -8 -6 -5 -6 6 -1 11 2
17 5 13 3 -3 4 -12 1 -19z"/>
<path d="M1776 1879 c-36 -103 -45 -134 -51 -170 -5 -29 -4 -40 4 -35 6 4 11
15 11 25 0 9 11 55 24 101 14 47 23 86 21 89 -3 2 -7 -2 -9 -10z"/>
<path d="M1482 1818 c2 -17 10 -23 30 -23 46 -1 51 -18 13 -48 l-34 -27 -11
34 c-13 39 -39 67 -41 45 -1 -8 -1 -33 1 -56 1 -24 -2 -43 -7 -43 -5 0 -22 14
-39 31 -16 17 -42 40 -58 50 -26 16 -32 16 -56 4 -53 -27 -103 -110 -56 -92 7
3 41 2 75 -2 42 -5 60 -4 58 3 -2 6 -12 13 -21 14 -10 2 -27 13 -39 25 l-21
21 -6 -23 c-5 -20 -7 -22 -18 -9 -10 13 -8 18 12 32 14 9 29 16 34 16 10 0 87
-80 135 -141 20 -25 61 -65 91 -89 41 -33 52 -47 48 -63 -3 -14 -1 -18 6 -13
7 4 12 2 12 -3 0 -6 -5 -11 -11 -11 -13 0 -5 -40 16 -83 8 -15 11 -35 8 -43
-3 -9 1 -14 12 -14 14 0 16 6 11 28 -4 15 -9 36 -12 47 l-4 20 9 -20 c5 -11
12 -28 15 -37 3 -10 11 -18 18 -18 9 0 9 3 0 12 -7 7 -12 24 -12 39 0 23 5 28
38 34 20 3 47 9 60 12 17 4 22 1 22 -15 0 -11 -6 -25 -14 -31 -8 -7 -15 -43
-19 -98 -3 -49 -9 -96 -12 -105 -6 -16 0 -18 58 -18 l65 0 -10 28 c-14 35 12
110 55 158 32 37 41 69 26 93 -8 13 -9 13 -8 1 1 -8 -3 -28 -9 -43 -7 -16 -12
-32 -12 -37 0 -4 -11 -11 -25 -14 -18 -5 -25 -13 -25 -30 0 -24 -26 -96 -35
-96 -3 0 -5 12 -5 26 0 14 4 23 10 19 16 -10 12 89 -5 111 -19 25 -19 31 5 37
30 8 44 54 25 83 -17 26 -53 32 -73 12 -9 -9 -17 -9 -34 0 -13 6 -39 13 -58
14 -32 3 -35 6 -34 33 0 17 5 39 9 50 8 18 7 19 -10 5 -17 -15 -18 -14 -1 18
17 32 17 35 -3 77 -11 23 -27 45 -36 49 -9 3 -15 13 -13 23 2 10 -11 26 -31
40 -44 30 -63 30 -59 1z m132 -144 c3 -11 0 -36 -8 -55 l-15 -34 -1 56 c0 78
-20 94 -61 50 -36 -40 -37 -55 -4 -47 21 5 25 3 25 -16 0 -19 2 -20 10 -8 7
11 10 5 10 -23 l0 -38 -38 27 c-21 15 -50 44 -64 64 -22 29 -25 42 -19 70 l7
35 7 -27 c9 -36 21 -35 64 3 l35 30 23 -33 c12 -18 25 -42 29 -54z m-198 14
l29 -33 -32 29 c-31 28 -38 36 -30 36 2 0 16 -15 33 -32z m49 -58 c10 -11 16
-20 13 -20 -3 0 -13 9 -23 20 -10 11 -16 20 -13 20 3 0 13 -9 23 -20z m68 -63
c21 -14 31 -17 40 -8 16 16 37 14 31 -3 -3 -9 -13 -12 -22 -9 -14 5 -15 3 -4
-8 6 -7 12 -17 12 -22 0 -13 -58 24 -88 57 -28 30 -19 28 31 -7z m189 -85 c5
-5 6 -16 3 -24 -7 -19 -55 -34 -64 -20 -3 4 -14 11 -23 15 -11 4 -18 17 -18
30 0 24 2 24 47 16 26 -5 51 -13 55 -17z m68 3 c-10 -13 -9 -15 11 -16 21 -1
21 -2 4 -7 l-20 -5 20 -8 c19 -7 19 -8 -1 -8 -26 -1 -39 26 -23 45 6 8 14 14
16 14 3 0 0 -7 -7 -15z m-35 -25 c3 -5 1 -10 -4 -10 -6 0 -11 5 -11 10 0 6 2
10 4 10 3 0 8 -4 11 -10z m36 -114 c9 -34 2 -56 -16 -50 -16 6 -30 58 -20 74
11 18 28 6 36 -24z m-19 -126 c2 -22 0 -40 -4 -40 -5 0 -8 18 -8 40 0 22 2 40
4 40 2 0 6 -18 8 -40z"/>
<path d="M1751 1710 c-1 -8 -4 -26 -7 -40 -5 -19 -4 -22 5 -14 7 6 11 24 8 40
-2 16 -5 22 -6 14z"/>
<path d="M1045 1641 c-16 -40 -53 -108 -82 -149 -53 -77 -63 -105 -41 -118 8
-5 9 -2 5 10 -5 11 11 43 48 97 30 44 55 78 55 76 0 -3 -7 -24 -16 -48 -9 -28
-13 -57 -8 -79 6 -34 6 -34 16 -10 5 13 8 33 6 45 -1 11 0 25 4 30 7 12 22
106 19 119 -1 4 5 19 14 33 9 13 15 34 13 46 -2 15 -12 -1 -33 -52z"/>
<path d="M1182 1628 c-14 -36 -21 -78 -21 -128 -1 -64 3 -79 25 -111 14 -21
32 -40 40 -43 22 -9 17 42 -8 72 -13 17 -19 20 -15 9 5 -13 3 -17 -5 -15 -7 3
-16 21 -19 41 -5 30 -3 37 10 35 12 -2 16 7 18 42 0 25 4 69 8 98 5 33 4 52
-2 52 -6 0 -20 -24 -31 -52z m19 -16 c-6 -12 -11 -31 -11 -43 0 -17 -3 -20
-11 -12 -9 9 -8 21 5 48 10 20 20 34 23 32 2 -3 0 -14 -6 -25z"/>
<path d="M1269 1655 c-4 -5 -10 -39 -14 -74 -6 -52 -5 -62 6 -56 8 5 11 5 7 0
-4 -4 -3 -14 3 -21 7 -8 7 -14 -1 -19 -6 -4 -9 -1 -8 7 4 16 -34 18 -39 2 -2
-7 7 -14 20 -18 19 -4 23 -11 20 -30 -3 -14 2 -35 11 -48 17 -24 22 -58 8 -58
-5 0 -16 -6 -26 -13 -16 -12 -17 -16 -5 -35 7 -12 10 -24 7 -27 -4 -4 -78 -3
-165 1 -94 4 -150 10 -138 15 17 6 16 8 -8 8 -22 1 -28 -3 -25 -16 3 -16 22
-19 166 -25 129 -5 165 -10 178 -23 9 -9 24 -13 34 -10 16 5 20 -1 25 -42 3
-26 10 -56 16 -66 6 -12 6 -31 -1 -58 -6 -22 -7 -45 -3 -52 4 -6 10 -30 13
-51 5 -40 6 -40 50 -42 26 -1 56 5 70 14 23 15 24 14 11 -2 -10 -12 -15 -47
-15 -119 l-1 -102 -29 -10 c-22 -7 -30 -7 -34 3 -2 6 -9 9 -15 6 -9 -5 -9 -4
-1 5 6 7 25 13 43 13 18 1 31 6 31 14 0 16 -29 46 -40 39 -9 -6 -22 53 -14 66
3 5 11 9 19 9 10 0 11 5 2 24 -7 13 -15 22 -19 20 -5 -3 -8 0 -8 5 0 19 -18
12 -25 -9 -4 -12 -1 -27 5 -35 18 -22 15 -109 -4 -136 -24 -35 -21 -59 9 -59
35 0 94 26 101 45 4 10 19 15 43 15 20 0 42 4 49 9 23 14 9 45 -24 54 l-31 9
14 41 c8 23 12 54 9 68 -3 18 0 29 9 33 7 2 17 26 20 53 4 26 15 74 26 106 23
69 24 110 4 127 -9 8 -15 32 -16 64 -1 49 -15 126 -18 97 -2 -21 -12 -6 -22
31 -6 24 -7 18 -2 -22 3 -30 10 -64 16 -75 6 -11 16 -62 22 -112 11 -97 4
-136 -33 -188 -13 -19 -14 -19 -7 5 5 17 4 22 -3 15 -6 -5 -14 -23 -18 -39 -5
-22 -4 -27 6 -21 8 5 11 4 6 -3 -3 -5 -3 -12 1 -15 5 -2 2 -2 -5 0 -8 1 -21 3
-30 3 -14 0 -14 2 -3 9 14 9 16 34 7 111 l-6 45 13 -40 13 -40 10 97 c5 53 6
94 3 92 -4 -2 -15 24 -24 59 -16 54 -19 59 -26 37 -5 -19 -7 -14 -8 24 -1 72
-15 47 -17 -32 -1 -37 -7 -94 -14 -127 -7 -33 -15 -82 -18 -110 l-7 -49 -14
29 c-8 18 -16 25 -18 17 -3 -7 3 -24 12 -38 26 -40 41 -16 54 89 19 146 21
156 33 163 7 5 9 -2 4 -20 -5 -20 -4 -26 5 -20 9 5 10 2 5 -12 -5 -10 -9 -74
-11 -141 -2 -101 -6 -126 -22 -148 -15 -21 -24 -25 -46 -20 -14 4 -25 11 -24
15 1 4 -11 19 -26 34 -31 29 -31 41 5 110 10 22 22 62 25 90 3 28 9 56 14 62
4 5 4 52 -1 104 -6 51 -8 96 -4 99 3 3 35 5 70 3 l64 -2 0 28 c0 37 -2 39 -46
34 -25 -3 -38 -10 -41 -23 -3 -11 -14 -19 -27 -19 -12 0 -26 -4 -32 -9 -5 -5
-18 -5 -29 -1 -16 6 -11 9 22 14 59 11 63 24 5 18 -45 -4 -49 -2 -75 32 -25
32 -27 40 -18 71 6 21 6 35 0 35 -5 0 -9 -9 -9 -19 0 -43 -19 -29 -22 16 -2
27 -6 44 -9 38z m256 -175 c-3 -5 -12 -7 -20 -3 -21 7 -19 13 6 13 11 0 18 -4
14 -10z m-175 -103 c7 -34 14 -70 17 -79 5 -22 -22 -24 -31 -3 -9 25 -24 17
-18 -10 2 -14 0 -25 -6 -25 -6 0 -17 -3 -26 -6 -24 -9 -21 38 4 59 13 10 20
28 18 45 -1 15 2 37 6 50 5 13 3 22 -3 22 -6 0 -11 -8 -11 -17 -1 -16 -2 -16
-15 1 -22 29 -19 32 19 28 33 -4 34 -6 46 -65z m34 1 c3 -29 5 -64 5 -78 -1
-20 -3 -18 -9 10 -16 67 -21 120 -12 120 5 0 12 -24 16 -52z m13 10 c-3 -7 -5
-2 -5 12 0 14 2 19 5 13 2 -7 2 -19 0 -25z m10 -70 c-3 -7 -5 -2 -5 12 0 14 2
19 5 13 2 -7 2 -19 0 -25z m-10 -80 c-3 -8 -6 -5 -6 6 -1 11 2 17 5 13 3 -3 4
-12 1 -19z m-77 2 c0 -5 -4 -10 -10 -10 -5 0 -10 5 -10 10 0 6 5 10 10 10 6 0
10 -4 10 -10z m50 -19 c0 -10 -3 -40 -7 -67 l-7 -49 -12 60 c-7 33 -10 63 -8
67 10 16 34 8 34 -11z m237 -63 c-3 -7 -5 -2 -5 12 0 14 2 19 5 13 2 -7 2 -19
0 -25z m-78 -277 c0 -20 -3 -30 -6 -23 -2 6 -8 10 -13 7 -4 -2 -7 13 -6 35 0
30 3 36 13 28 7 -6 13 -27 12 -47z m-9 -68 c0 -3 -7 -15 -16 -25 -24 -25 -2
-51 37 -43 15 3 30 1 34 -4 4 -7 -8 -11 -34 -11 -56 0 -56 0 -56 47 0 34 4 43
18 43 9 0 17 -3 17 -7z"/>
<path d="M1406 1613 c-11 -33 -10 -93 1 -104 14 -14 27 85 15 108 -9 14 -10
14 -16 -4z"/>
<path d="M1317 1578 c-4 -13 2 -33 15 -51 26 -36 33 -23 18 32 -12 45 -25 53
-33 19z"/>
<path d="M1900 1563 c-8 -16 -15 -38 -16 -51 -2 -13 -11 -44 -20 -68 -9 -24
-14 -47 -11 -50 3 -3 8 5 12 18 4 13 14 31 23 41 8 9 18 36 22 60 4 23 11 50
15 60 12 28 -11 19 -25 -10z"/>
<path d="M1074 1445 c-6 -13 -8 -28 -4 -35 4 -7 10 2 14 21 8 40 4 45 -10 14z"/>
<path d="M1103 1452 c1 -14 5 -18 11 -12 7 7 6 14 -1 21 -9 9 -12 7 -10 -9z"/>
<path d="M1050 1280 c41 -4 104 -7 140 -7 l65 0 -50 7 c-27 5 -90 8 -140 8
l-90 -1 75 -7z"/>
<path d="M1562 1225 c0 -16 2 -22 5 -12 2 9 2 23 0 30 -3 6 -5 -1 -5 -18z"/>
<path d="M1010 1152 c-25 -57 -26 -62 -14 -62 7 -1 47 110 42 115 -2 2 -14
-22 -28 -53z"/>
<path d="M1056 1154 c-10 -25 1 -29 14 -5 6 12 7 21 1 21 -5 0 -12 -7 -15 -16z"/>
<path d="M1557 1153 c-4 -3 -7 -18 -7 -31 0 -32 11 -23 14 12 3 28 3 30 -7 19z"/>
<path d="M1122 1120 c0 -14 2 -19 5 -12 2 6 2 18 0 25 -3 6 -5 1 -5 -13z"/>
<path d="M1872 1118 c-18 -24 -63 -120 -58 -125 3 -3 13 11 22 30 14 30 20 34
36 26 10 -5 18 -15 18 -22 0 -8 -4 -6 -10 3 -9 13 -13 11 -30 -10 -11 -14 -20
-29 -20 -33 0 -12 30 -67 36 -67 9 0 64 61 64 71 0 5 -4 9 -9 9 -5 0 -15 16
-21 34 -8 24 -16 33 -26 29 -8 -3 -14 0 -14 6 0 6 5 11 12 11 6 0 8 3 5 6 -3
4 -2 15 4 25 11 22 6 25 -9 7z"/>
<path d="M1142 1090 c0 -14 2 -19 5 -12 2 6 2 18 0 25 -3 6 -5 1 -5 -13z"/>
<path d="M1694 1083 c-4 -10 -9 -29 -10 -42 l-3 -24 21 22 c23 26 34 22 19 -7
-6 -12 -11 -24 -11 -29 1 -4 8 5 16 20 16 29 13 42 -9 42 -7 0 -11 8 -9 18 4
22 -4 22 -14 0z"/>
<path d="M1030 1019 c0 -4 21 -20 48 -35 33 -20 42 -29 30 -32 -10 -2 -30 6
-44 17 -15 12 -31 21 -37 21 -6 0 4 -11 23 -25 19 -14 45 -25 58 -25 13 0 32
-5 43 -11 11 -6 24 -9 29 -7 5 2 -20 22 -56 46 -35 24 -62 47 -60 51 3 3 -4 7
-15 7 -10 0 -19 -3 -19 -7z"/>
<path d="M1656 1014 c-3 -8 -2 -12 3 -9 16 10 24 -16 8 -28 -21 -17 -28 -44
-11 -44 10 0 12 7 8 21 -6 21 -6 21 10 1 8 -11 16 -15 17 -10 0 6 2 19 3 30 1
11 -6 28 -15 37 -15 14 -18 14 -23 2z"/>
<path d="M870 925 c7 -9 15 -13 17 -11 7 7 -7 26 -19 26 -6 0 -6 -6 2 -15z"/>
<path d="M1250 923 c-54 -46 -70 -64 -70 -80 1 -14 4 -13 15 7 17 30 19 22 5
-15 -10 -26 -9 -27 17 -20 41 10 53 24 53 61 0 27 3 32 18 28 13 -5 14 -4 3 4
-7 5 -16 14 -20 19 -3 5 -12 4 -21 -4z m8 -48 c1 -14 -3 -25 -8 -25 -6 0 -10
11 -10 25 0 14 4 25 8 25 4 0 9 -11 10 -25z"/>
<path d="M954 881 c3 -4 19 -14 36 -21 23 -9 29 -17 24 -29 -3 -9 -6 -22 -5
-28 0 -7 1 -24 2 -37 1 -16 6 -23 15 -19 17 6 27 41 22 79 -2 24 -11 31 -51
46 -27 10 -46 14 -43 9z"/>
<path d="M1665 861 c3 -6 12 -11 20 -11 7 0 23 -12 34 -27 17 -24 20 -25 21
-9 0 20 0 20 16 0 14 -18 15 -18 8 6 -3 14 -10 32 -15 40 -7 12 -9 11 -9 -5
-1 -17 -2 -18 -13 -5 -14 17 -73 27 -62 11z"/>
<path d="M1791 834 c0 -11 3 -14 6 -6 3 7 2 16 -1 19 -3 4 -6 -2 -5 -13z"/>
<path d="M1076 832 c17 -6 21 -14 19 -40 -3 -36 20 -56 36 -31 8 12 12 11 23
-3 7 -10 19 -18 25 -18 7 0 10 -4 6 -9 -3 -5 3 -12 12 -14 13 -3 11 -5 -6 -6
-18 -1 -22 -4 -14 -12 18 -18 77 3 81 29 3 17 -2 22 -17 22 -12 0 -21 6 -21
15 0 8 -4 15 -10 15 -5 0 -10 -4 -10 -9 0 -5 -7 -11 -15 -15 -19 -7 -41 32
-26 47 19 19 -9 37 -58 36 -30 -1 -39 -3 -25 -7z"/>
<path d="M1810 820 c0 -11 4 -20 9 -20 5 0 7 9 4 20 -3 11 -7 20 -9 20 -2 0
-4 -9 -4 -20z"/>
<path d="M1791 794 c0 -11 3 -14 6 -6 3 7 2 16 -1 19 -3 4 -6 -2 -5 -13z"/>
<path d="M982 774 c-7 -8 -18 -12 -23 -8 -6 3 -21 3 -35 0 -23 -6 -25 -11 -22
-53 2 -26 8 -48 14 -50 16 -5 77 54 71 69 -2 7 0 21 5 31 12 24 7 29 -10 11z
m-40 -36 c-6 -6 -16 -7 -22 -3 -9 6 -9 9 1 16 17 10 34 0 21 -13z"/>
<path d="M1805 770 c-3 -5 -15 -10 -26 -10 -24 0 -34 -23 -20 -47 8 -14 10
-15 11 -3 0 13 1 13 10 0 7 -11 10 -11 10 -2 0 7 4 10 10 7 6 -3 7 1 4 10 -4
9 2 25 11 35 10 11 13 20 7 20 -6 0 -14 -4 -17 -10z"/>
</g>
</svg>
