<?xml version="1.0" standalone="no"?>
<!DOCTYPE svg PUBLIC "-//W3C//DTD SVG 20010904//EN"
 "http://www.w3.org/TR/2001/REC-SVG-20010904/DTD/svg10.dtd">
<svg version="1.0" xmlns="http://www.w3.org/2000/svg"
 width="500.000000pt" height="500.000000pt" viewBox="0 0 500.000000 500.000000"
 preserveAspectRatio="xMidYMid meet">
<metadata>
Created by potrace 1.14, written by Peter Selinger 2001-2017
</metadata>
<g transform="translate(0.000000,500.000000) scale(0.100000,-0.100000)"
fill="#000000" stroke="none">
<path d="M1143 3884 c-20 -53 29 -329 92 -520 32 -97 125 -297 143 -308 4 -2
31 26 60 63 105 138 271 288 392 354 l32 17 -51 40 c-126 100 -477 312 -578
350 -65 24 -82 25 -90 4z"/>
<path d="M3745 3868 c-145 -66 -435 -243 -557 -338 l-46 -37 91 -61 c122 -81
200 -152 298 -275 45 -56 85 -103 89 -105 7 -3 97 173 124 243 57 150 116 416
116 528 0 73 -1 77 -22 77 -13 0 -54 -15 -93 -32z"/>
<path d="M1960 2957 c-13 -7 -35 -28 -47 -46 -20 -30 -23 -46 -23 -136 0 -90
3 -106 23 -136 27 -41 60 -59 107 -59 47 0 80 18 107 59 20 30 23 46 23 136 0
90 -3 106 -23 136 -27 41 -60 59 -107 59 -19 0 -46 -6 -60 -13z"/>
<path d="M2912 2950 c-46 -29 -62 -73 -62 -175 0 -131 31 -183 113 -192 59 -7
110 18 132 64 13 27 16 58 13 144 -3 107 -4 109 -35 140 -41 42 -112 50 -161
19z"/>
<path d="M3745 2341 c33 -15 82 -45 109 -65 28 -22 42 -29 34 -17 -8 11 -26
29 -40 41 -32 24 -127 70 -148 70 -8 0 12 -13 45 -29z"/>
<path d="M1212 2234 c-94 -32 -149 -59 -161 -82 -12 -23 -25 -102 -16 -102 3
0 29 10 57 22 27 11 81 28 120 37 l70 16 28 68 29 67 -27 0 c-15 0 -60 -12
-100 -26z"/>
<path d="M3675 2230 c9 -18 23 -49 29 -68 12 -34 16 -37 97 -57 46 -12 101
-30 123 -39 l39 -17 -5 52 c-4 38 -12 58 -27 70 -30 25 -172 78 -227 86 l-46
6 17 -33z"/>
<path d="M1510 2095 c-36 -8 -111 -37 -166 -65 -105 -53 -114 -62 -114 -124 0
-32 -10 -33 120 13 165 59 280 61 401 10 42 -19 48 -26 80 -97 80 -183 216
-331 373 -407 116 -56 154 -64 298 -65 97 0 130 4 195 25 199 62 356 211 462
437 46 97 54 108 94 127 111 54 264 34 490 -64 15 -6 17 -1 17 43 l0 50 -90
46 c-165 86 -307 106 -433 62 -101 -36 -127 -60 -161 -150 -40 -106 -113 -221
-183 -287 -97 -93 -200 -134 -357 -145 -252 -17 -442 96 -563 333 -28 56 -57
119 -64 141 -9 31 -22 45 -63 70 -101 60 -204 75 -336 47z"/>
<path d="M2270 1902 c-38 -6 -45 -11 -48 -32 -2 -15 11 -48 32 -83 78 -130
208 -246 259 -233 64 16 200 158 253 264 43 85 40 86 -229 88 -122 1 -242 -1
-267 -4z"/>
</g>
</svg>
